<?xml version="1.0" encoding="utf-8"?>
<!-- Generator: Adobe Illustrator 19.2.1, SVG Export Plug-In . SVG Version: 6.00 Build 0)  -->
<svg version="1.1" id="Layer_1" xmlns="http://www.w3.org/2000/svg" xmlns:xlink="http://www.w3.org/1999/xlink" x="0px" y="0px"
	 viewBox="0 0 170 170" style="enable-background:new 0 0 170 170;" xml:space="preserve">
<style type="text/css">
	.st0{fill:#4C4C4C;}
</style>
<path class="st0" d="M158,0H12C5.4,0,0,5.4,0,12v146c0,6.6,5.4,12,12,12h146c6.6,0,12-5.4,12-12V12C170,5.4,164.6,0,158,0z
	 M92.8,27.9c2.5-2.9,5.7-5.2,9.5-7.1c3.8-1.9,7.5-2.9,10.9-3.1c0.1,0.9,0.1,1.8,0.1,2.7c0,3.4-0.6,6.6-1.8,9.8
	c-1.2,3.1-3.1,6.2-5.5,9.1c-5.9,6.9-13.1,10.9-20.8,10.3C85,48.7,85,47.8,85,46.9C85,40.5,87.8,33.5,92.8,27.9z M139.3,122.6
	c-2,4.7-4.4,9-7.2,13c-3.8,5.4-6.9,9.2-9.3,11.3c-3.7,3.4-7.7,5.2-12,5.3c-3.1,0-6.8-0.9-11.1-2.7c-4.3-1.8-8.3-2.6-11.9-2.6
	c-3.8,0-7.9,0.9-12.3,2.6c-4.4,1.8-7.9,2.7-10.6,2.8c-4.1,0.2-8.2-1.6-12.3-5.4c-2.6-2.3-5.9-6.2-9.8-11.7
	c-4.2-5.9-7.6-12.7-10.3-20.5c-2.9-8.4-4.3-16.5-4.3-24.4c0-9,1.9-16.8,5.9-23.3c3.1-5.2,7.2-9.4,12.3-12.4c5.1-3,10.6-4.6,16.6-4.7
	c3.3,0,7.5,1,12.8,3c5.3,2,8.7,3,10.2,3c1.1,0,4.9-1.2,11.3-3.5c6-2.2,11.1-3.1,15.3-2.7c11.3,0.9,19.9,5.4,25.5,13.4
	c-10.1,6.1-15.1,14.7-15,25.8c0.1,8.6,3.2,15.8,9.3,21.4c2.8,2.6,5.9,4.7,9.3,6.1C141,118.5,140.2,120.6,139.3,122.6z"/>
</svg>
